<svg xmlns="http://www.w3.org/2000/svg" viewBox="0 0 439 119"><defs><style>.a{fill:#fd2;}.b{fill:#fff;}.c{fill:#262626;}.d{fill:#fedc3d;}</style></defs><title>teaching-nl-logo</title><path class="a" d="M350.5,50.56c0,12.83-.11,26.61,0,40.07,31.32.32,88.51,1,88.51,1l-.53-41.34C438.58,50.35,377.86,49.92,350.5,50.56Z"/><path class="b" d="M121.11,49.29V84.16h-8.44V49.29H99.09V41.34h35.59v7.95Z"/><path class="b" d="M159.8,75.58c-1.5,5.09-6.31,9.43-13.58,9.43-8.23,0-15.39-5.83-15.39-15.9,0-9.43,7.05-15.58,14.75-15.58,9.19,0,14.75,5.83,14.75,15.37,0,1.17-.11,2.33-.11,2.44H138.85a7.32,7.32,0,0,0,7.59,6.78c3.74,0,5.88-1.91,6.84-4.56Zm-7.48-9.75c-.11-3-2-5.83-6.73-5.83a6.57,6.57,0,0,0-6.73,5.83Z"/><path class="b" d="M172.52,67l7.38-1.06c1.71-.21,2.24-1.06,2.24-2.12,0-2.12-1.6-3.82-5-3.82s-5.45,2.23-5.67,4.77l-7.16-1.48c.53-4.66,4.81-9.75,12.83-9.75,9.51,0,13,5.3,13,11.24V79.39c0,1.59.21,3.71.32,4.66H183.1a17.34,17.34,0,0,1-.32-3.6A10,10,0,0,1,174,84.91c-6.41,0-10.26-4.24-10.26-8.9C163.65,70.7,167.6,67.73,172.52,67Zm9.62,5.09V70.7l-6.73,1.06c-2,.32-3.74,1.48-3.74,3.71,0,1.7,1.28,3.39,3.85,3.39C178.93,79,182.14,77.38,182.14,72.08Z"/><path class="b" d="M202.67,69.22c0,5.41,3.53,8.37,7.7,8.37a6.8,6.8,0,0,0,6.84-5l7.16,2.33c-1.39,5-6,10-14,10a15.43,15.43,0,0,1-15.71-15.69,15.26,15.26,0,0,1,15.5-15.69c8.12,0,12.72,5,14,10l-7.27,2.44a6.5,6.5,0,0,0-6.63-5C206.19,60.95,202.67,63.92,202.67,69.22Z"/><path class="b" d="M237.19,84.06h-8.12V40.49h8.12V56.92c1.92-2.33,5.24-3.29,8.12-3.29,7.59,0,11.12,5.19,11.12,11.77V84.06h-8.12V66.78c0-3.29-1.6-5.94-5.56-5.94-3.42,0-5.45,2.54-5.56,5.83Z"/><path class="b" d="M267.33,39.75a5,5,0,0,1,5,5,4.91,4.91,0,0,1-5,4.88,5,5,0,0,1-5-4.88A5.14,5.14,0,0,1,267.33,39.75Zm-4,44.31V54.38h8.12V84.06Z"/><path class="b" d="M287,84.06h-8.12V54.38h7.8v3.71c1.82-3.07,5.45-4.45,8.66-4.45,7.38,0,10.8,5.19,10.8,11.77V84.06H298V66.78c0-3.29-1.6-5.94-5.56-5.94-3.53,0-5.56,2.76-5.56,6.15V84.06Z"/><path class="b" d="M318.32,83.74a6.67,6.67,0,0,0,6.95,5.62c5.13,0,8-2.54,8-8.27V79c-1.18,1.91-4.06,3.82-8.34,3.82-8,0-13.9-6-13.9-14.42,0-7.84,5.67-14.42,13.9-14.42,4.7,0,7.48,2,8.55,4v-3.5h7.8V81c0,8.16-4.49,15.58-15.71,15.58-8.23,0-13.68-5.09-14.54-10.71Zm15.07-15.37c0-4.56-3.21-7.53-7.05-7.53-4.06,0-7.16,2.86-7.16,7.53s3,7.53,7.16,7.53S333.39,72.92,333.39,68.37Z"/><path class="c" d="M361.94,74.41a2.86,2.86,0,1,1-2.89,2.86A2.86,2.86,0,0,1,361.94,74.41Z"/><path class="c" d="M370.92,72.18c0,2.76,1.82,4.35,4,4.35a3.44,3.44,0,0,0,3.53-2.65l3.74,1.27a7.16,7.16,0,0,1-7.27,5.19,8.07,8.07,0,0,1-8.23-8.16,7.89,7.89,0,0,1,8-8.16c4.28,0,6.63,2.65,7.27,5.19l-3.74,1.27a3.49,3.49,0,0,0-3.42-2.65C372.73,67.84,370.92,69.43,370.92,72.18Z"/><path class="c" d="M399.67,72.18A8.12,8.12,0,1,1,391.54,64,7.92,7.92,0,0,1,399.67,72.18Zm-4.28,0c0-2.86-1.92-4.35-4-4.35s-4,1.48-4,4.35,1.92,4.35,4,4.35S395.39,75,395.39,72.18Z"/><path class="c" d="M402.34,79.92V64.44h4.06v1.91A5.5,5.5,0,0,1,411,64a4.83,4.83,0,0,1,4.6,2.54A5.39,5.39,0,0,1,420.51,64c2.89,0,5.67,1.7,5.67,5.83v10h-4.06V70.7a2.55,2.55,0,0,0-2.78-2.86,2.85,2.85,0,0,0-2.89,3.07v9h-4.17V70.8a2.55,2.55,0,0,0-2.78-2.86A2.85,2.85,0,0,0,406.62,71v9h-4.28Z"/><path class="d" d="M350.5,50.56c0,12.83-.11,26.61,0,40.07,31.32.32,88.51,1,88.51,1l-.53-41.34C438.58,50.35,377.86,49.92,350.5,50.56Z"/><path class="c" d="M361.94,74.41a2.86,2.86,0,1,1-2.89,2.86A2.86,2.86,0,0,1,361.94,74.41Z"/><path class="c" d="M370.92,72.18c0,2.76,1.82,4.35,4,4.35a3.44,3.44,0,0,0,3.53-2.65l3.74,1.27a7.16,7.16,0,0,1-7.27,5.19,8.07,8.07,0,0,1-8.23-8.16,7.89,7.89,0,0,1,8-8.16c4.28,0,6.63,2.65,7.27,5.19l-3.74,1.27a3.49,3.49,0,0,0-3.42-2.65C372.73,67.84,370.92,69.43,370.92,72.18Z"/><path class="c" d="M399.67,72.18A8.12,8.12,0,1,1,391.54,64,7.92,7.92,0,0,1,399.67,72.18Zm-4.28,0c0-2.86-1.92-4.35-4-4.35s-4,1.48-4,4.35,1.92,4.35,4,4.35S395.39,75,395.39,72.18Z"/><path class="c" d="M402.34,79.92V64.44h4.06v1.91A5.5,5.5,0,0,1,411,64a4.83,4.83,0,0,1,4.6,2.54A5.39,5.39,0,0,1,420.51,64c2.89,0,5.67,1.7,5.67,5.83v10h-4.06V70.7a2.55,2.55,0,0,0-2.78-2.86,2.85,2.85,0,0,0-2.89,3.07v9h-4.17V70.8a2.55,2.55,0,0,0-2.78-2.86A2.85,2.85,0,0,0,406.62,71v9h-4.28Z"/><path class="d" d="M42.44,0a42,42,0,0,0-21,78.65V103l20.84,15.69L63.17,103V78.65A42,42,0,0,0,42.44,0ZM59.32,89.36h-29v3.92h29v3.39h-29v3.92h29v.53l-17,12.72-17-12.72V86H59.22v3.39Zm1.07-13.57-1.07.53V82H47.67V44.73s0-1.7.11-3.6C56,41.76,62.32,40,65.2,37.42c2-1.8,1.71-3.6,1.39-4.24C65.74,31.06,63,30,58,30s-8.77,1.48-11.22,4.35A10.2,10.2,0,0,0,45.11,37a51.1,51.1,0,0,1-15.93-5.3c-.11,0-.11-.11-.21-.11a4.13,4.13,0,1,0-4.06,4.66,4.53,4.53,0,0,0,2.67-1,56.22,56.22,0,0,0,16.35,5.51c-.21,3-.21,7.1-.21,7.1V82.15H41.47V44.31a1.92,1.92,0,0,0-3.85,0V82H25.44V76.32l-1.07-.53A38.11,38.11,0,0,1,42.44,3.92a38.08,38.08,0,0,1,18,71.87Zm-11-38.48c.11-.21.32-.32.43-.53,1.71-2,4.49-3,8.34-3a12.24,12.24,0,0,1,4.6.64,8.64,8.64,0,0,1-3,1.59A26.57,26.57,0,0,1,49.38,37.31ZM26.51,31.91a1.6,1.6,0,1,1-1.6-1.59A1.64,1.64,0,0,1,26.51,31.91Z"/></svg>